REM DIRINDEX 1\4,1\2\5,1\2\6,1\2\7,1\3\8,1\3\9,1\3\10,1\3\11
REM DIRNAME folder01,folder02,folder03,folder04,folder05,folder06,folder07,folder08,folder09,folder10,folder11
TITLE ""
FILE "t_k_157-167.mp3" MP3
  TRACK 01 AUDIO
    TITLE "5:cjc108_0471"
    INDEX 01 00:00:00
  TRACK 02 AUDIO
    TITLE "0:"
    INDEX 01 00:01:11
  TRACK 03 AUDIO
    TITLE "6:cjc108_0472"
    INDEX 01 00:01:13
  TRACK 04 AUDIO
    TITLE "0:"
    INDEX 01 00:03:21
  TRACK 05 AUDIO
    TITLE "7:cjc108_0473"
    INDEX 01 00:03:41
  TRACK 06 AUDIO
    TITLE "0:"
    INDEX 01 00:10:49
  TRACK 07 AUDIO
    TITLE "5:cjc108_0474"
    INDEX 01 00:11:50
  TRACK 08 AUDIO
    TITLE "0:"
    INDEX 01 00:12:63
  TRACK 09 AUDIO
    TITLE "6:cjc108_0475"
    INDEX 01 00:12:71
  TRACK 10 AUDIO
    TITLE "0:"
    INDEX 01 00:15:23
  TRACK 11 AUDIO
    TITLE "7:cjc108_0476"
    INDEX 01 00:15:40
  TRACK 12 AUDIO
    TITLE "0:"
    INDEX 01 00:19:52
  TRACK 13 AUDIO
    TITLE "5:cjc108_0477"
    INDEX 01 00:20:41
  TRACK 14 AUDIO
    TITLE "0:"
    INDEX 01 00:21:60
  TRACK 15 AUDIO
    TITLE "6:cjc108_0478"
    INDEX 01 00:22:11
  TRACK 16 AUDIO
    TITLE "0:"
    INDEX 01 00:24:53
  TRACK 17 AUDIO
    TITLE "7:cjc108_0479"
    INDEX 01 00:24:72
  TRACK 18 AUDIO
    TITLE "0:"
    INDEX 01 00:31:53
  TRACK 19 AUDIO
    TITLE "5:cjc108_0480"
    INDEX 01 00:32:41
  TRACK 20 AUDIO
    TITLE "0:"
    INDEX 01 00:33:46
  TRACK 21 AUDIO
    TITLE "6:cjc108_0481"
    INDEX 01 00:33:60
  TRACK 22 AUDIO
    TITLE "0:"
    INDEX 01 00:35:08
  TRACK 23 AUDIO
    TITLE "7:cjc108_0482"
    INDEX 01 00:35:27
  TRACK 24 AUDIO
    TITLE "0:"
    INDEX 01 00:42:02
  TRACK 25 AUDIO
    TITLE "5:cjc108_0483"
    INDEX 01 00:42:61
  TRACK 26 AUDIO
    TITLE "0:"
    INDEX 01 00:44:07
  TRACK 27 AUDIO
    TITLE "6:cjc108_0484"
    INDEX 01 00:44:18
  TRACK 28 AUDIO
    TITLE "0:"
    INDEX 01 00:46:41
  TRACK 29 AUDIO
    TITLE "7:cjc108_0485"
    INDEX 01 00:46:56
  TRACK 30 AUDIO
    TITLE "0:"
    INDEX 01 00:51:24
  TRACK 31 AUDIO
    TITLE "5:cjc108_0486"
    INDEX 01 00:52:06
  TRACK 32 AUDIO
    TITLE "0:"
    INDEX 01 00:53:23
  TRACK 33 AUDIO
    TITLE "6:cjc108_0487"
    INDEX 01 00:53:33
  TRACK 34 AUDIO
    TITLE "0:"
    INDEX 01 00:55:59
  TRACK 35 AUDIO
    TITLE "7:cjc108_0488"
    INDEX 01 00:55:71
  TRACK 36 AUDIO
    TITLE "0:"
    INDEX 01 01:01:05
  TRACK 37 AUDIO
    TITLE "5:cjc108_0489"
    INDEX 01 01:01:58
  TRACK 38 AUDIO
    TITLE "0:"
    INDEX 01 01:02:73
  TRACK 39 AUDIO
    TITLE "6:cjc108_0490"
    INDEX 01 01:03:14
  TRACK 40 AUDIO
    TITLE "0:"
    INDEX 01 01:05:34
  TRACK 41 AUDIO
    TITLE "7:cjc108_0491"
    INDEX 01 01:05:48
  TRACK 42 AUDIO
    TITLE "0:"
    INDEX 01 01:13:34
  TRACK 43 AUDIO
    TITLE "5:cjc108_0492"
    INDEX 01 01:14:17
  TRACK 44 AUDIO
    TITLE "0:"
    INDEX 01 01:15:19
  TRACK 45 AUDIO
    TITLE "6:cjc108_0493"
    INDEX 01 01:15:40
  TRACK 46 AUDIO
    TITLE "0:"
    INDEX 01 01:16:40
  TRACK 47 AUDIO
    TITLE "7:cjc108_0494"
    INDEX 01 01:16:60
  TRACK 48 AUDIO
    TITLE "0:"
    INDEX 01 01:22:42
  TRACK 49 AUDIO
    TITLE "5:cjc108_0495"
    INDEX 01 01:23:28
  TRACK 50 AUDIO
    TITLE "0:"
    INDEX 01 01:24:55
  TRACK 51 AUDIO
    TITLE "6:cjc108_0496"
    INDEX 01 01:24:71
  TRACK 52 AUDIO
    TITLE "0:"
    INDEX 01 01:27:46
  TRACK 53 AUDIO
    TITLE "7:cjc108_0497"
    INDEX 01 01:27:67
  TRACK 54 AUDIO
    TITLE "0:"
    INDEX 01 01:34:10
  TRACK 55 AUDIO
    TITLE "5:cjc108_0498"
    INDEX 01 01:34:67
  TRACK 56 AUDIO
    TITLE "0:"
    INDEX 01 01:35:73
  TRACK 57 AUDIO
    TITLE "6:cjc108_0499"
    INDEX 01 01:36:19
  TRACK 58 AUDIO
    TITLE "0:"
    INDEX 01 01:38:65
  TRACK 59 AUDIO
    TITLE "7:cjc108_0500"
    INDEX 01 01:39:08
  TRACK 60 AUDIO
    TITLE "0:"
    INDEX 01 01:47:35
  TRACK 61 AUDIO
    TITLE "5:cjc108_0501"
    INDEX 01 01:48:16
  TRACK 62 AUDIO
    TITLE "0:"
    INDEX 01 01:49:41
  TRACK 63 AUDIO
    TITLE "6:cjc108_0502"
    INDEX 01 01:49:53
  TRACK 64 AUDIO
    TITLE "0:"
    INDEX 01 01:50:68
  TRACK 65 AUDIO
    TITLE "7:cjc108_0503"
    INDEX 01 01:51:09
  TRACK 66 AUDIO
    TITLE "0:"
    INDEX 01 01:55:46
